<?xml version="1.0" encoding="UTF-8" standalone="no"?>
<!-- Created with Inkscape (http://www.inkscape.org/) -->

<svg
   width="500"
   height="500"
   viewBox="0 0 132.29166 132.29167"
   version="1.1"
   id="svg5"
   sodipodi:docname="settings.svg"
   inkscape:version="1.4.2 (ebf0e940d0, 2025-05-08)"
   xmlns:inkscape="http://www.inkscape.org/namespaces/inkscape"
   xmlns:sodipodi="http://sodipodi.sourceforge.net/DTD/sodipodi-0.dtd"
   xmlns="http://www.w3.org/2000/svg"
   xmlns:svg="http://www.w3.org/2000/svg">
  <sodipodi:namedview
     id="namedview7"
     pagecolor="#505050"
     bordercolor="#ffffff"
     borderopacity="1"
     inkscape:showpageshadow="0"
     inkscape:pageopacity="0"
     inkscape:pagecheckerboard="1"
     inkscape:deskcolor="#505050"
     inkscape:document-units="px"
     showgrid="false"
     inkscape:zoom="0.8409652"
     inkscape:cx="262.19872"
     inkscape:cy="270.52249"
     inkscape:window-width="1920"
     inkscape:window-height="1008"
     inkscape:window-x="0"
     inkscape:window-y="0"
     inkscape:window-maximized="1"
     inkscape:current-layer="layer1" />
  <defs
     id="defs2" />
  <g
     inkscape:label="Layer 1"
     inkscape:groupmode="layer"
     id="layer1">
    <path
       id="path1-6"
       style="fill:#000000;stroke:none;stroke-width:7.34945"
       d="M 56.614522,2.4999999e-6 C 52.57229,2.4999999e-6 49.122398,2.9210712 48.461154,6.9044736 v 0.015627 l -1.564596,9.4021074 c -0.455465,2.748726 -2.297011,5.042768 -4.73699,6.387756 -0.543746,0.308591 -1.092803,0.624213 -1.622017,0.947415 -2.388573,1.440456 -5.292923,1.88178 -7.909307,0.904289 L 23.699807,21.217007 A 8.2681559,8.2681559 0 0 0 13.622939,24.820022 L 4.0916152,41.327613 a 8.2681559,8.2681559 0 0 0 1.9091242,10.521785 l 7.3781396,6.071901 c 2.146076,1.771234 3.220206,4.499258 3.172317,7.292046 a 50.946542,50.946542 0 0 0 0,1.880452 c 0.05468,2.778101 -1.026241,5.513781 -3.172317,7.277672 L 6.0007394,80.44337 A 8.2681559,8.2681559 0 0 0 4.0916152,90.965232 L 13.622939,107.4729 a 8.2681559,8.2681559 0 0 0 10.062492,3.60295 l 8.942813,-3.34459 c 2.616384,-0.9775 5.520734,-0.53594 7.909307,0.90428 a 47.918559,47.918559 0 0 0 1.622017,0.93304 c 2.439979,1.35233 4.281604,3.65341 4.73699,6.40205 l 1.564596,9.41649 c 0.668744,3.98347 4.111136,6.90454 8.153368,6.90454 H 75.67717 c 4.04223,0 7.492122,-2.91372 8.153288,-6.90454 l 1.564674,-9.41649 c 0.462496,-2.74864 2.304198,-5.04276 4.73699,-6.38767 a 47.551085,47.551085 0 0 0 1.622017,-0.94742 c 2.395917,-1.44045 5.300267,-1.88178 7.909307,-0.90428 l 8.942804,3.34459 a 8.2681559,8.2681559 0 0 0 10.0625,-3.60295 l 9.53133,-16.507668 c 2.01372,-3.490986 1.20702,-7.949462 -1.90913,-10.521862 l -7.37822,-6.071901 c -2.15334,-1.771157 -3.21949,-4.499571 -3.15794,-7.277672 a 56.759973,56.759973 0 0 0 0,-1.880452 c -0.0625,-2.785445 1.0046,-5.520812 3.15794,-7.292046 l 7.37822,-6.071901 a 8.2681559,8.2681559 0 0 0 1.90913,-10.521785 l -9.53133,-16.507591 a 8.2681559,8.2681559 0 0 0 -10.0625,-3.603015 l -8.942804,3.34458 c -2.60904,0.977491 -5.520655,0.535932 -7.909307,-0.90429 -0.536713,-0.323433 -1.064131,-0.639056 -1.60772,-0.933038 -2.439978,-1.352332 -4.288401,-3.653406 -4.751287,-6.402133 L 83.830458,6.9056462 C 83.169526,2.9222427 79.7194,0.00117511 75.67717,0.00117511 Z M 64.495078,44.15423 a 22.048432,22.048432 0 0 1 23.699171,21.991059 22.048443,22.048443 0 1 1 -44.096885,0 22.048432,22.048432 0 0 1 20.397714,-21.991059 z" />
  </g>
</svg>
