<?xml version="1.0" encoding="UTF-8" standalone="no"?>
<!-- Created with Inkscape (http://www.inkscape.org/) -->

<svg
   width="680"
   height="1002.6257"
   viewBox="0 0 179.91665 265.27804"
   version="1.1"
   id="svg1"
   inkscape:version="1.4.3 (0d15f75042, 2025-12-25)"
   sodipodi:docname="globe.svg"
   xmlns:inkscape="http://www.inkscape.org/namespaces/inkscape"
   xmlns:sodipodi="http://sodipodi.sourceforge.net/DTD/sodipodi-0.dtd"
   xmlns="http://www.w3.org/2000/svg"
   xmlns:svg="http://www.w3.org/2000/svg">
  <sodipodi:namedview
     id="namedview1"
     pagecolor="#4f4f4f"
     bordercolor="#ffffff"
     borderopacity="1"
     inkscape:showpageshadow="0"
     inkscape:pageopacity="0"
     inkscape:pagecheckerboard="1"
     inkscape:deskcolor="#4f4f4f"
     inkscape:document-units="px"
     inkscape:zoom="0.49562948"
     inkscape:cx="275.40735"
     inkscape:cy="352.07752"
     inkscape:window-width="1920"
     inkscape:window-height="1008"
     inkscape:window-x="0"
     inkscape:window-y="0"
     inkscape:window-maximized="1"
     inkscape:current-layer="layer1"
     showgrid="false" />
  <defs
     id="defs1" />
  <g
     inkscape:label="Layer 1"
     inkscape:groupmode="layer"
     id="layer1"
     transform="translate(-124.61875,-95.51458)">
    <path
       d="m 214.57592,295.66458 a 67.540988,67.540988 0 0 0 65.38068,-50.6109 m -65.38068,50.6109 a 67.540988,67.540988 0 0 1 -65.38069,-50.6109 m 65.38069,50.6109 c 18.64054,0 33.75534,-30.22989 33.75534,-67.51098 0,-37.2811 -15.1148,-67.51099 -33.75534,-67.51099 m 0,135.02197 c -18.64054,0 -33.75564,-30.22989 -33.75564,-67.51098 0,-37.2811 15.1151,-67.51099 33.75564,-67.51099 m 0,0 a 67.488479,67.488479 0 0 1 58.83216,34.37057 m -58.83216,-34.37057 a 67.488479,67.488479 0 0 0 -58.83216,34.37057 m 117.66432,0 a 89.662086,89.662086 0 0 1 -58.83216,21.88845 c -22.48864,0 -43.05706,-8.2513 -58.83216,-21.88845 m 117.66432,0 a 67.203434,67.203434 0 0 1 8.67882,33.14042 c 0,5.83578 -0.74279,11.4992 -2.12916,16.90008 m 0,0 a 134.41437,134.41437 0 0 1 -65.3807,16.85527 c -23.71879,0 -46.00499,-6.11363 -65.38068,-16.85527 m 0,0 A 67.623501,67.623501 0 0 1 147.0672,228.1536 c 0,-12.03957 3.15037,-23.35136 8.67883,-33.14042"
       stroke-linecap="round"
       stroke-linejoin="round"
       id="path1"
       style="fill:none;stroke:#000000;stroke-width:17.3508;stroke-dasharray:none" />
  </g>
</svg>
